<svg 
 xmlns="http://www.w3.org/2000/svg"
 xmlns:xlink="http://www.w3.org/1999/xlink"
 width="84px" height="125px">
<path fill-rule="evenodd"  fill-opacity="0.251" fill="rgb(219, 101, 140)"
 d="M55.807,124.195 C55.773,124.183 55.739,124.171 55.704,124.158 C49.607,121.916 43.513,119.663 37.419,117.410 L28.649,114.169 L28.768,113.835 L23.474,111.973 C17.350,109.820 11.225,107.669 5.108,105.493 C3.236,104.829 1.866,103.569 1.251,101.948 C0.629,100.306 0.815,98.394 1.776,96.562 C3.269,93.719 6.091,92.626 9.150,93.703 C9.163,93.708 9.174,93.712 9.188,93.716 C10.300,94.116 11.410,94.543 12.485,94.952 C13.684,95.410 14.921,95.883 16.142,96.315 C20.872,97.969 25.932,96.679 29.036,93.024 C29.919,91.984 30.727,90.624 31.375,89.093 C31.992,87.630 31.364,86.003 29.808,85.046 C25.418,82.342 22.538,79.341 20.745,75.598 C18.631,71.194 18.151,66.152 19.275,60.189 C20.601,53.158 23.372,46.228 28.261,37.716 C34.857,26.233 42.246,16.921 50.848,9.249 C55.261,5.315 59.038,2.881 63.096,1.363 C69.812,-1.152 75.184,0.821 78.632,7.064 C81.739,12.685 82.695,18.779 83.220,24.001 C84.389,35.577 83.646,47.740 81.012,60.151 C79.353,67.966 77.394,73.705 74.661,78.757 C73.332,81.213 71.874,83.401 70.328,85.263 C65.282,91.333 58.609,93.760 50.499,92.470 C48.661,92.178 46.328,92.570 45.651,96.101 C44.440,102.412 47.513,107.898 53.480,110.074 C55.806,110.925 57.902,111.692 60.007,112.499 C63.501,113.830 64.834,116.911 63.490,120.536 C62.239,123.913 59.160,125.375 55.807,124.195 ZM33.798,111.698 L38.841,113.561 C44.931,115.814 51.022,118.066 57.119,120.304 C58.435,120.807 59.236,120.427 59.714,119.136 C60.287,117.590 59.992,116.885 58.547,116.331 C56.466,115.536 54.386,114.773 52.075,113.930 C44.279,111.085 40.105,103.625 41.689,95.366 C42.646,90.384 46.367,87.660 51.170,88.424 C57.781,89.474 63.194,87.529 67.256,82.643 C68.628,80.995 69.931,79.033 71.128,76.821 C73.663,72.134 75.494,66.742 77.068,59.335 C79.612,47.344 80.332,35.615 79.206,24.465 C78.723,19.658 77.856,14.073 75.108,9.097 C72.613,4.580 69.327,3.376 64.454,5.202 C60.888,6.538 57.508,8.731 53.492,12.313 C45.227,19.683 38.112,28.658 31.742,39.747 C27.096,47.833 24.474,54.362 23.239,60.914 C22.270,66.048 22.633,70.134 24.377,73.773 C25.822,76.787 28.222,79.254 31.930,81.538 C35.205,83.552 36.500,87.307 35.080,90.670 C34.258,92.615 33.249,94.299 32.081,95.676 C27.879,100.624 21.090,102.394 14.785,100.187 C13.507,99.746 12.245,99.257 11.020,98.787 C9.952,98.376 8.883,97.967 7.805,97.582 C7.799,97.580 7.791,97.578 7.784,97.575 C6.305,97.054 5.716,97.723 5.333,98.452 C4.934,99.213 4.822,99.921 5.020,100.439 C5.262,101.079 5.948,101.438 6.481,101.627 C12.594,103.800 18.716,105.952 24.835,108.104 L33.938,111.302 L33.798,111.698 ZM26.808,69.187 C25.948,68.885 25.381,68.016 25.483,67.056 C26.123,61.083 27.961,55.009 31.270,47.943 C35.484,38.941 41.138,30.177 49.062,20.365 C49.772,19.486 51.045,19.349 51.903,20.057 C52.762,20.768 52.881,22.058 52.171,22.937 C44.463,32.482 38.980,40.974 34.912,49.664 C31.805,56.299 30.085,61.952 29.496,67.449 C29.376,68.574 28.379,69.400 27.271,69.291 C27.108,69.274 26.953,69.239 26.808,69.187 ZM56.231,18.795 C54.869,18.316 54.141,16.802 54.606,15.409 C54.848,14.680 55.378,14.065 56.060,13.717 C56.724,13.378 57.464,13.314 58.142,13.545 C59.539,14.014 60.275,15.507 59.797,16.937 L59.797,16.937 C59.555,17.667 59.022,18.287 58.338,18.638 C57.675,18.973 56.939,19.034 56.263,18.806 C56.252,18.803 56.242,18.799 56.231,18.795 Z"/>
</svg>