<svg 
 xmlns="http://www.w3.org/2000/svg"
 xmlns:xlink="http://www.w3.org/1999/xlink"
 width="29px" height="25px">
<path fill-rule="evenodd"  fill="rgb(255, 255, 255)"
 d="M28.921,7.117 L25.634,17.612 C25.466,18.443 25.000,18.844 24.489,18.844 L11.821,18.844 C11.189,18.844 10.637,18.522 10.479,17.907 L5.984,1.626 L2.325,1.626 C1.815,1.626 1.110,1.690 1.000,1.190 L0.986,0.699 C0.875,0.198 1.199,-0.001 1.709,-0.001 L5.890,-0.001 C6.522,-0.001 7.074,0.313 7.231,0.928 L8.710,5.383 L27.611,5.383 C28.632,5.383 29.218,6.136 28.921,7.117 ZM9.152,7.162 L11.839,16.657 L23.720,16.657 L26.685,7.162 L9.152,7.162 ZM12.674,20.220 C13.964,20.220 15.011,21.290 15.011,22.610 C15.011,23.929 13.964,24.999 12.674,24.999 C11.383,24.999 10.337,23.929 10.337,22.610 C10.337,21.290 11.383,20.220 12.674,20.220 ZM24.337,20.220 C25.628,20.220 26.675,21.290 26.675,22.610 C26.675,23.929 25.628,24.999 24.337,24.999 C23.047,24.999 22.000,23.929 22.000,22.610 C22.000,21.290 23.047,20.220 24.337,20.220 Z"/>
</svg>