<svg 
 xmlns="http://www.w3.org/2000/svg"
 xmlns:xlink="http://www.w3.org/1999/xlink"
 width="18px" height="17px">
<path fill-rule="evenodd"  fill="rgb(255, 255, 255)"
 d="M11.109,8.494 L16.454,3.145 C17.178,2.421 17.178,1.246 16.454,0.522 C15.730,-0.202 14.556,-0.202 13.833,0.522 L8.488,5.870 L3.144,0.521 C2.420,-0.203 1.246,-0.203 0.522,0.521 C-0.202,1.245 -0.202,2.419 0.522,3.144 L5.867,8.494 L0.521,13.843 C-0.203,14.567 -0.203,15.742 0.521,16.466 C0.882,16.828 1.358,17.009 1.831,17.009 C2.305,17.009 2.780,16.828 3.142,16.466 L8.486,11.117 L13.830,16.466 C14.192,16.828 14.667,17.009 15.141,17.009 C15.614,17.009 16.089,16.828 16.451,16.466 C17.175,15.742 17.175,14.567 16.451,13.843 L11.109,8.494 Z"/>
</svg>