<svg 
 xmlns="http://www.w3.org/2000/svg"
 xmlns:xlink="http://www.w3.org/1999/xlink"
 width="28px" height="30px">
<path fill-rule="evenodd"  stroke-width="1px" stroke="rgb(255, 155, 204)" fill-opacity="0" fill="rgb(253, 138, 119)"
 d="M23.551,22.229 L8.189,26.345 C7.635,26.493 7.054,26.201 6.892,25.691 L4.334,17.708 C4.171,17.199 4.488,16.666 5.041,16.519 L6.711,16.071 L5.333,11.772 C4.355,8.719 6.254,5.523 9.574,4.634 C12.894,3.744 16.378,5.498 17.356,8.551 L18.733,12.850 L20.403,12.403 C20.956,12.255 21.537,12.547 21.700,13.056 L24.258,21.040 C24.421,21.548 24.104,22.081 23.551,22.229 ZM13.409,20.001 L13.982,21.792 C14.145,22.301 14.726,22.593 15.279,22.445 C15.833,22.297 16.149,21.764 15.986,21.255 L15.413,19.464 C15.907,18.985 16.124,18.289 15.906,17.609 C15.580,16.591 14.419,16.006 13.312,16.303 C12.205,16.599 11.573,17.665 11.899,18.682 C12.117,19.363 12.710,19.841 13.409,20.001 ZM15.352,9.087 C14.700,7.053 12.377,5.883 10.164,6.476 C7.951,7.069 6.685,9.199 7.337,11.234 L8.714,15.534 L16.729,13.387 L15.352,9.087 Z"/>
</svg>