<svg 
 xmlns="http://www.w3.org/2000/svg"
 xmlns:xlink="http://www.w3.org/1999/xlink"
 width="20px" height="13px">
<path fill-rule="evenodd"  fill="rgb(217, 27, 91)"
 d="M18.588,12.178 C18.255,12.459 17.854,12.599 17.386,12.599 L1.718,12.599 C1.250,12.599 0.849,12.459 0.516,12.178 C0.182,11.898 0.015,11.561 0.015,11.167 L0.015,4.058 C0.327,4.350 0.686,4.610 1.090,4.837 C3.659,6.305 5.422,7.334 6.380,7.926 C6.785,8.176 7.113,8.372 7.365,8.512 C7.616,8.652 7.952,8.795 8.370,8.942 C8.789,9.088 9.179,9.161 9.541,9.161 L9.552,9.161 L9.563,9.161 C9.925,9.161 10.315,9.088 10.733,8.942 C11.152,8.795 11.487,8.652 11.739,8.512 C11.991,8.372 12.319,8.176 12.724,7.926 C13.930,7.191 15.697,6.161 18.024,4.837 C18.429,4.604 18.783,4.344 19.089,4.058 L19.089,11.167 C19.089,11.561 18.922,11.898 18.588,12.178 ZM17.268,3.879 C14.601,5.436 12.940,6.406 12.287,6.788 C12.217,6.830 12.066,6.921 11.835,7.061 C11.604,7.202 11.413,7.315 11.260,7.402 C11.108,7.488 10.923,7.585 10.707,7.693 C10.491,7.800 10.286,7.881 10.095,7.934 C9.903,7.988 9.726,8.014 9.563,8.014 L9.552,8.014 L9.541,8.014 C9.378,8.014 9.201,7.988 9.009,7.934 C8.817,7.881 8.613,7.800 8.397,7.693 C8.180,7.585 7.996,7.488 7.843,7.402 C7.691,7.315 7.499,7.202 7.269,7.061 C7.038,6.921 6.887,6.830 6.816,6.788 C6.171,6.406 5.241,5.862 4.028,5.154 C2.814,4.448 2.087,4.022 1.846,3.879 C1.406,3.628 0.991,3.283 0.601,2.844 C0.210,2.406 0.015,1.999 0.015,1.622 C0.015,1.157 0.162,0.769 0.457,0.459 C0.751,0.148 1.172,-0.007 1.718,-0.007 L17.386,-0.007 C17.847,-0.007 18.246,0.133 18.583,0.414 C18.920,0.694 19.089,1.032 19.089,1.426 C19.089,1.898 18.915,2.348 18.567,2.777 C18.219,3.207 17.786,3.574 17.268,3.879 Z"/>
</svg>