<svg 
 xmlns="http://www.w3.org/2000/svg"
 xmlns:xlink="http://www.w3.org/1999/xlink"
 width="47px" height="49px">
<path fill-rule="evenodd"  fill="rgb(217, 27, 91)"
 d="M42.734,48.886 L4.290,48.886 C2.059,48.886 0.244,47.124 0.244,44.958 L0.244,23.970 C0.244,22.920 0.665,21.934 1.429,21.192 L1.441,21.204 L1.444,21.201 L1.894,21.644 L1.437,21.192 L5.569,17.239 L5.569,7.118 L16.133,7.118 L23.559,-0.002 L30.947,7.118 L41.249,7.118 L41.249,17.048 L45.354,21.004 L45.368,20.988 C46.265,21.736 46.779,22.822 46.779,23.970 L46.779,44.958 C46.779,47.124 44.965,48.886 42.734,48.886 ZM4.290,47.610 L42.734,47.610 C43.270,47.610 43.769,47.459 44.191,47.199 L23.442,30.120 L2.753,47.149 C3.191,47.439 3.720,47.610 4.290,47.610 ZM1.559,23.970 L1.559,44.958 C1.559,45.405 1.674,45.827 1.876,46.197 L16.219,34.392 L1.981,22.556 C1.708,22.975 1.559,23.461 1.559,23.970 ZM5.569,19.031 L2.869,21.614 L5.569,23.858 L5.569,19.031 ZM23.557,1.794 L18.004,7.118 L29.081,7.118 L23.557,1.794 ZM39.935,8.395 L6.884,8.395 L6.884,24.951 L17.234,33.556 L23.442,28.447 L29.597,33.513 L39.935,24.898 L39.935,8.395 ZM41.249,18.846 L41.249,23.802 L44.007,21.504 L41.249,18.846 ZM45.465,23.970 C45.465,23.403 45.278,22.858 44.940,22.409 L30.612,34.349 L45.102,46.275 C45.332,45.887 45.465,45.437 45.465,44.958 L45.465,23.970 ZM26.463,24.787 L21.475,19.736 C21.280,19.539 21.280,19.227 21.475,19.030 L26.307,14.144 C26.775,13.640 27.449,13.340 28.112,13.340 C29.368,13.340 30.417,14.331 30.452,15.550 C30.452,15.560 30.452,15.571 30.451,15.581 L30.449,15.666 C30.430,16.334 30.129,16.935 29.602,17.358 L27.414,19.396 L29.595,21.442 C30.129,21.873 30.432,22.470 30.449,23.125 L30.450,23.192 C30.452,23.210 30.452,23.227 30.451,23.244 C30.417,24.462 29.368,25.453 28.112,25.453 C27.502,25.453 26.901,25.210 26.463,24.787 ZM29.402,23.239 C29.402,23.232 29.402,23.225 29.402,23.218 L29.400,23.146 C29.391,22.789 29.219,22.458 28.915,22.218 C28.903,22.209 28.892,22.199 28.881,22.189 L26.294,19.761 C26.191,19.665 26.133,19.533 26.134,19.394 C26.134,19.255 26.192,19.123 26.295,19.027 L28.891,16.610 C28.902,16.599 28.913,16.590 28.924,16.581 C29.221,16.348 29.390,16.012 29.400,15.634 L29.403,15.563 C29.376,14.897 28.800,14.358 28.112,14.358 C27.751,14.358 27.346,14.543 27.081,14.830 C27.077,14.835 27.073,14.839 27.069,14.843 L22.580,19.384 L27.211,24.074 C27.442,24.297 27.782,24.435 28.112,24.435 C28.797,24.435 29.371,23.900 29.402,23.239 ZM31.578,17.497 C31.848,17.197 32.242,17.021 32.640,17.021 C33.403,17.021 34.024,17.625 34.024,18.366 C34.024,18.377 34.023,18.387 34.022,18.399 C34.011,18.801 33.820,19.165 33.509,19.409 C33.821,19.655 34.013,20.019 34.022,20.416 C34.023,20.427 34.024,20.438 34.024,20.448 C34.024,21.189 33.403,21.792 32.640,21.792 C32.262,21.792 31.896,21.640 31.636,21.373 L31.619,21.354 L29.928,19.404 L31.578,17.497 ZM22.374,15.676 C22.355,16.345 22.055,16.947 21.528,17.369 L19.340,19.407 L21.520,21.454 C22.055,21.884 22.358,22.480 22.374,23.136 L22.376,23.204 C22.377,23.221 22.378,23.238 22.377,23.255 C22.342,24.473 21.293,25.463 20.038,25.463 C19.428,25.463 18.826,25.221 18.388,24.798 L13.400,19.747 C13.206,19.549 13.206,19.238 13.401,19.041 L18.232,14.155 C18.700,13.651 19.374,13.350 20.038,13.350 C21.294,13.350 22.343,14.342 22.377,15.560 C22.378,15.571 22.377,15.582 22.377,15.593 L22.374,15.676 ZM20.038,14.369 C19.676,14.369 19.271,14.554 19.007,14.841 C19.003,14.845 18.999,14.850 18.994,14.854 L14.505,19.394 L19.137,24.084 C19.367,24.307 19.707,24.445 20.038,24.445 C20.723,24.445 21.296,23.911 21.328,23.250 C21.328,23.243 21.327,23.236 21.327,23.230 L21.326,23.159 C21.317,22.800 21.144,22.469 20.840,22.229 C20.828,22.220 20.817,22.210 20.807,22.200 L18.219,19.772 C18.117,19.676 18.059,19.543 18.059,19.405 C18.059,19.266 18.118,19.134 18.221,19.038 L20.817,16.620 C20.827,16.610 20.838,16.600 20.850,16.591 C21.146,16.359 21.315,16.022 21.326,15.645 L21.328,15.574 C21.301,14.908 20.726,14.369 20.038,14.369 Z"/>
</svg>