<svg 
 xmlns="http://www.w3.org/2000/svg"
 xmlns:xlink="http://www.w3.org/1999/xlink"
 width="19px" height="19px">
<path fill-rule="evenodd"  fill="rgb(217, 27, 91)"
 d="M18.998,14.449 C19.039,14.746 18.945,15.005 18.716,15.226 L16.038,17.788 C15.917,17.917 15.759,18.028 15.565,18.118 C15.370,18.209 15.179,18.267 14.991,18.292 C14.977,18.292 14.937,18.296 14.870,18.303 C14.803,18.309 14.716,18.312 14.608,18.312 C14.353,18.312 13.940,18.270 13.370,18.186 C12.799,18.102 12.101,17.895 11.275,17.565 C10.450,17.234 9.513,16.740 8.466,16.080 C7.419,15.420 6.305,14.513 5.123,13.362 C4.183,12.468 3.405,11.614 2.787,10.799 C2.170,9.984 1.673,9.230 1.297,8.538 C0.921,7.846 0.639,7.217 0.451,6.655 C0.263,6.092 0.136,5.606 0.069,5.198 C0.001,4.791 -0.025,4.471 -0.012,4.238 C0.001,4.005 0.008,3.875 0.008,3.849 C0.035,3.668 0.095,3.484 0.189,3.296 C0.283,3.109 0.397,2.956 0.532,2.840 L3.210,0.259 C3.398,0.077 3.613,-0.013 3.854,-0.013 C4.029,-0.013 4.183,0.035 4.318,0.132 C4.452,0.229 4.566,0.349 4.660,0.491 L6.815,4.432 C6.936,4.639 6.969,4.865 6.915,5.111 C6.862,5.357 6.748,5.564 6.573,5.732 L5.586,6.684 C5.560,6.710 5.536,6.752 5.516,6.810 C5.496,6.868 5.486,6.917 5.486,6.956 C5.539,7.228 5.660,7.538 5.848,7.887 C6.009,8.198 6.258,8.577 6.593,9.023 C6.929,9.470 7.405,9.984 8.023,10.566 C8.627,11.161 9.164,11.624 9.634,11.954 C10.104,12.285 10.497,12.527 10.812,12.682 C11.128,12.838 11.369,12.931 11.537,12.964 L11.789,13.013 C11.816,13.013 11.859,13.003 11.920,12.983 C11.980,12.964 12.024,12.942 12.051,12.915 L13.199,11.789 C13.440,11.582 13.722,11.479 14.044,11.479 C14.273,11.479 14.454,11.517 14.588,11.596 L14.608,11.596 L18.495,13.808 C18.777,13.976 18.945,14.190 18.998,14.449 Z"/>
</svg>