<svg 
 xmlns="http://www.w3.org/2000/svg"
 xmlns:xlink="http://www.w3.org/1999/xlink"
 width="123px" height="139px">
<path fill-rule="evenodd"  fill-opacity="0.851" fill="rgb(192, 79, 116)"
 d="M105.070,124.946 C100.967,128.728 96.326,131.806 91.278,134.091 C68.362,144.465 40.697,136.812 26.926,116.292 C26.313,115.377 25.713,114.451 25.113,113.525 L24.278,112.235 L21.183,105.413 C21.038,104.934 20.916,104.525 20.793,104.114 C20.525,103.219 20.257,102.323 20.025,101.420 C16.033,85.960 18.646,71.353 27.791,58.000 C27.663,58.054 27.537,58.105 27.412,58.158 C26.143,58.687 24.945,59.189 23.696,59.546 C15.308,61.936 6.307,58.054 2.290,50.309 C-1.570,42.866 0.477,33.464 7.157,27.954 C7.613,27.579 8.078,27.213 8.543,26.849 L9.272,26.295 L64.382,1.353 L64.450,1.341 C64.876,1.274 65.302,1.197 65.726,1.118 C66.644,0.951 67.594,0.781 68.546,0.700 C77.309,-0.006 85.347,5.632 87.662,14.105 C89.955,22.500 85.662,31.483 77.457,35.463 C77.120,35.625 76.780,35.783 76.423,35.944 L75.834,36.207 C92.147,38.150 104.878,45.858 113.682,59.123 C127.485,79.921 123.862,107.603 105.070,124.946 ZM110.096,61.259 C100.063,46.335 85.560,39.252 66.988,40.203 C65.322,40.288 64.753,39.431 64.569,38.695 C64.289,37.575 64.793,36.661 65.990,36.119 L68.122,35.185 C69.749,34.471 71.380,33.760 72.998,33.027 C73.000,33.027 73.001,33.026 73.002,33.025 C73.872,32.632 74.740,32.231 75.604,31.822 C79.893,29.791 82.894,26.058 83.834,21.577 C84.752,17.206 83.553,12.778 80.544,9.424 C76.471,4.884 69.725,3.457 64.140,5.954 C60.687,7.498 57.236,9.055 53.790,10.614 L38.044,17.752 L38.040,17.744 L26.756,22.850 C22.403,24.820 18.052,26.791 13.703,28.771 C12.551,29.296 11.570,29.828 10.706,30.400 C5.011,34.166 2.864,42.214 5.921,48.343 C9.084,54.687 16.617,57.794 23.069,55.414 C24.578,54.860 26.210,54.180 28.206,53.277 C29.235,52.811 30.260,52.334 31.284,51.857 C32.245,51.405 33.209,50.956 34.175,50.517 L34.184,50.513 C35.424,49.951 36.400,50.135 37.084,51.055 C37.747,51.947 37.612,52.952 36.704,53.881 C36.507,54.083 36.302,54.277 36.096,54.468 C35.865,54.686 35.632,54.904 35.414,55.135 C19.902,71.536 18.006,96.649 30.907,114.853 C43.980,133.300 68.624,139.829 89.506,130.378 C93.171,128.720 96.635,126.593 99.803,124.058 C119.266,108.480 123.691,81.481 110.096,61.259 ZM106.965,96.141 C106.548,96.329 106.029,96.371 105.332,96.272 C103.190,95.967 101.436,96.875 100.741,98.660 C100.036,100.481 100.713,102.263 102.552,103.432 C103.943,104.314 104.203,105.313 103.391,106.662 C100.379,111.672 96.481,115.801 91.807,118.936 C91.512,119.132 91.257,119.278 91.029,119.381 C89.666,119.998 88.903,119.165 88.240,118.257 C87.097,116.695 85.227,116.174 83.474,116.925 L83.472,116.926 C81.751,117.705 80.873,119.507 81.269,121.337 C81.524,122.519 81.642,123.634 80.289,124.246 C80.022,124.367 79.693,124.476 79.251,124.589 C73.799,125.981 68.210,126.167 62.639,125.137 C60.964,124.827 60.445,124.060 60.722,122.305 C61.047,120.259 60.142,118.564 58.361,117.881 C56.585,117.202 54.656,117.918 53.516,119.679 C53.112,120.300 52.728,120.681 52.304,120.872 C51.528,121.224 50.771,120.878 50.269,120.590 C45.210,117.666 41.054,113.815 37.918,109.139 C36.973,107.728 37.149,106.782 38.551,105.768 C40.272,104.523 40.846,102.733 40.090,100.985 C39.319,99.202 37.576,98.410 35.428,98.865 C33.723,99.228 32.893,98.739 32.469,97.119 C31.032,91.636 30.885,85.972 32.030,80.287 C32.154,79.668 32.394,78.917 33.140,78.579 C33.579,78.381 34.147,78.345 34.982,78.465 C36.628,78.700 37.913,78.206 38.848,76.976 C39.751,75.786 39.858,74.519 39.196,72.759 C39.112,72.677 39.018,72.583 38.916,72.480 C38.554,72.118 38.105,71.665 37.596,71.297 C36.352,70.407 35.820,69.577 36.777,67.980 C39.750,63.018 43.652,58.895 48.376,55.722 C50.160,54.520 51.082,55.350 51.785,56.282 C53.098,58.025 54.874,58.560 56.662,57.751 C58.455,56.920 59.240,55.210 58.801,53.157 C58.552,52.001 58.516,50.761 60.583,50.205 C66.082,48.716 71.799,48.506 77.573,49.579 C79.070,49.855 79.665,50.698 79.439,52.225 C79.104,54.496 79.979,56.179 81.837,56.845 C83.678,57.503 85.430,56.805 86.654,54.939 C87.029,54.368 87.393,54.013 87.800,53.829 C88.584,53.475 89.352,53.817 89.933,54.153 C94.937,57.059 99.057,60.883 102.184,65.523 C103.173,66.991 102.996,67.894 101.503,68.974 C99.828,70.191 99.262,72.075 100.063,73.776 C100.890,75.534 102.602,76.307 104.644,75.846 C106.424,75.442 107.217,75.917 107.673,77.653 C109.078,82.997 109.228,88.620 108.121,94.361 C108.007,94.953 107.764,95.779 106.965,96.141 ZM104.003,80.108 C100.373,80.117 97.811,78.606 96.382,75.614 C94.902,72.512 95.400,69.495 97.859,66.645 C96.233,64.057 91.986,60.103 89.137,58.531 C88.164,59.305 87.178,59.920 86.205,60.360 L86.204,60.361 C83.864,61.420 81.624,61.467 79.723,60.499 C77.446,59.338 75.860,56.857 75.124,53.316 C70.986,52.754 67.051,52.904 63.121,53.775 C63.048,57.468 61.440,60.049 58.340,61.452 C55.199,62.855 52.207,62.350 49.395,59.980 C45.979,62.559 43.269,65.429 41.134,68.737 C43.693,71.260 44.411,74.134 43.268,77.280 C42.083,80.539 39.528,82.376 35.780,82.646 C35.157,86.735 35.266,90.647 36.113,94.585 C39.831,94.593 42.421,96.155 43.820,99.236 C45.207,102.299 44.673,105.279 42.235,108.101 C44.666,111.352 47.532,114.011 50.975,116.207 C53.632,113.604 56.644,112.886 59.840,114.080 C63.014,115.267 64.739,117.721 64.975,121.382 C69.215,121.940 73.154,121.791 76.990,120.923 C77.432,117.079 79.063,114.343 81.603,113.194 C84.130,112.050 87.348,112.576 90.694,114.673 C93.316,113.055 97.397,108.723 98.936,105.931 C96.392,103.375 95.699,100.367 96.931,97.213 C98.154,94.089 100.659,92.335 104.336,92.054 C104.975,88.001 104.865,84.084 104.003,80.108 ZM60.244,13.508 C60.173,13.539 60.103,13.581 60.032,13.621 C59.707,13.806 59.399,13.928 59.127,13.880 C58.679,13.804 58.262,13.652 57.859,13.505 C57.706,13.449 57.553,13.395 57.399,13.343 L56.869,13.168 L57.103,12.662 C57.172,12.516 57.225,12.347 57.281,12.179 C57.437,11.716 57.614,11.184 58.058,10.923 C58.526,10.649 59.053,10.381 59.715,10.082 C60.073,9.920 60.433,9.764 60.795,9.610 C61.011,9.514 61.229,9.421 61.445,9.327 L61.368,9.080 L61.850,8.928 C62.478,8.727 63.102,8.515 63.727,8.304 C65.124,7.827 66.569,7.338 68.037,6.997 C70.630,6.397 73.258,6.883 76.070,8.483 C77.224,9.141 77.559,9.947 77.068,10.878 C76.866,11.263 76.604,11.531 76.283,11.677 C75.594,11.988 74.861,11.640 74.372,11.353 C71.722,9.799 68.958,9.680 65.921,10.990 C64.633,11.548 63.352,12.120 62.070,12.693 L60.244,13.508 ZM54.054,15.227 C53.946,15.753 53.832,16.296 53.377,16.531 C52.401,17.033 51.394,17.521 50.386,17.977 C49.390,18.428 48.369,18.858 47.351,19.259 C46.703,19.513 45.558,18.896 45.327,18.318 C45.070,17.670 45.648,16.649 46.159,16.323 C46.716,15.971 47.488,15.622 48.291,15.282 C48.845,15.049 49.389,14.802 49.928,14.540 C50.684,14.169 51.426,13.835 52.037,13.665 C52.512,13.533 52.988,13.744 53.407,13.928 C53.558,13.994 53.707,14.061 53.851,14.108 L54.335,14.259 L54.173,14.739 C54.124,14.884 54.090,15.055 54.054,15.227 Z"/>
</svg>