<svg 
 xmlns="http://www.w3.org/2000/svg"
 xmlns:xlink="http://www.w3.org/1999/xlink"
 width="116px" height="112px">
<path fill-rule="evenodd"  fill-opacity="0.251" fill="rgb(219, 101, 140)"
 d="M113.595,87.084 C109.069,98.675 100.537,105.952 88.239,108.710 C87.480,108.879 87.039,109.107 86.616,109.549 C84.538,111.720 81.485,112.540 78.650,111.687 C77.383,111.306 76.217,110.595 75.275,109.634 C72.487,106.791 72.234,102.315 74.500,99.113 C72.403,100.916 71.747,103.166 72.370,106.295 L72.827,108.588 L70.750,107.585 C70.153,107.295 69.521,107.016 68.912,106.746 C67.542,106.138 66.126,105.505 64.815,104.672 C52.429,96.788 46.891,85.280 48.359,70.467 C48.932,64.694 51.136,59.234 54.909,54.247 C55.272,53.766 55.309,53.541 55.116,52.985 C52.713,46.082 47.214,40.738 40.406,38.692 C38.741,38.191 37.012,37.892 35.270,37.799 C26.120,37.313 17.660,42.462 13.715,50.915 C9.642,59.641 11.592,70.291 18.451,76.819 C18.520,76.886 18.677,76.987 18.895,77.053 C18.985,77.079 19.079,77.097 19.151,77.101 C19.914,77.132 20.662,77.257 21.376,77.472 C23.810,78.204 25.622,79.891 26.517,82.041 L28.129,82.426 C34.310,83.904 40.161,83.042 45.516,79.867 L46.803,79.101 L49.974,90.833 L49.117,91.260 C41.474,95.052 33.678,95.889 25.288,93.820 L23.128,93.285 L24.819,91.805 C27.109,89.801 27.833,87.666 27.114,84.996 C27.119,85.257 27.140,85.513 27.120,85.780 C26.946,88.085 25.894,90.135 24.156,91.562 C22.382,93.018 20.117,93.647 17.780,93.327 C17.433,93.280 17.088,93.203 16.748,93.101 C13.994,92.273 11.758,89.699 11.187,86.698 C11.117,86.310 10.889,85.870 10.624,85.592 C0.552,75.102 -2.386,63.052 1.890,49.777 C6.156,36.524 15.790,28.424 29.751,26.356 C35.169,25.552 38.871,23.120 41.404,18.697 C43.643,14.783 47.529,13.103 51.545,14.310 C52.405,14.569 53.264,14.957 54.098,15.463 C54.337,15.608 54.572,15.760 54.809,15.913 C55.219,16.178 55.604,16.426 55.998,16.629 C56.002,16.620 56.003,16.612 56.008,16.603 C56.276,16.064 56.593,15.584 56.898,15.118 C57.184,14.686 57.454,14.278 57.659,13.861 C57.703,13.770 57.729,13.545 57.710,13.444 C56.412,10.941 56.274,8.149 57.328,5.775 C58.371,3.424 60.503,1.696 63.172,1.033 L63.533,0.944 C64.547,0.691 65.595,0.431 66.640,0.205 C68.088,-0.110 69.564,-0.061 70.906,0.343 C73.508,1.125 75.471,3.117 76.336,5.837 C78.508,4.062 81.296,3.462 83.867,4.235 C85.185,4.631 86.372,5.349 87.397,6.370 C88.425,7.396 89.395,8.435 90.280,9.459 C92.034,11.484 92.725,14.133 92.177,16.726 C91.633,19.299 89.950,21.418 87.555,22.535 C87.322,22.645 87.258,22.713 87.249,22.722 C87.251,22.723 87.230,22.796 87.247,23.009 C87.307,23.914 87.311,24.844 87.259,25.773 C87.254,25.885 87.239,26.009 87.221,26.133 C89.278,26.005 90.957,26.134 92.381,26.562 C95.050,27.365 96.922,29.228 97.942,32.103 C98.497,33.668 98.453,35.430 98.415,36.984 C98.300,41.538 99.903,45.130 103.318,47.972 C115.030,57.725 119.065,73.078 113.595,87.084 ZM47.254,89.582 L45.368,82.602 C40.403,85.197 35.081,86.028 29.495,85.083 C29.991,87.635 29.431,89.946 27.824,91.990 C34.610,93.281 40.996,92.488 47.254,89.582 ZM74.254,96.243 L76.379,97.203 C78.376,95.746 80.893,95.309 83.341,96.044 C83.971,96.234 84.584,96.499 85.162,96.837 C85.503,97.034 86.081,97.143 86.420,97.077 C95.536,95.253 102.645,87.618 104.104,78.076 C105.512,68.890 101.048,59.664 92.997,55.122 C91.534,54.295 89.986,53.635 88.399,53.158 C77.715,49.946 66.503,55.045 61.739,65.282 C59.151,70.846 58.908,77.105 61.056,82.911 C63.200,88.710 67.425,93.236 72.953,95.658 C73.378,95.843 73.798,96.035 74.254,96.243 ZM56.534,20.121 C56.383,20.523 56.348,20.892 56.454,21.173 C56.607,21.577 57.033,21.781 57.363,21.881 C57.512,21.926 57.673,21.959 57.847,21.982 C57.908,21.981 58.242,21.880 58.779,21.480 C58.495,21.392 58.210,21.268 57.904,21.091 C57.396,20.801 56.926,20.482 56.534,20.121 ZM89.934,16.245 C90.329,14.380 89.827,12.468 88.557,11.000 C87.708,10.018 86.774,9.023 85.787,8.037 C85.031,7.282 84.163,6.755 83.207,6.467 C81.254,5.880 79.195,6.376 77.560,7.828 C77.023,8.304 76.356,8.897 75.509,8.643 C74.667,8.390 74.424,7.515 74.228,6.814 C73.640,4.703 72.188,3.161 70.246,2.577 C69.254,2.279 68.200,2.248 67.111,2.483 C66.098,2.702 65.066,2.958 64.069,3.203 L63.707,3.295 C61.702,3.792 60.179,5.010 59.420,6.724 C58.642,8.472 58.761,10.478 59.752,12.377 C60.157,13.154 60.038,14.234 59.708,14.900 C59.438,15.445 59.117,15.935 58.803,16.406 C58.524,16.833 58.258,17.237 58.054,17.648 C57.851,18.054 57.869,18.182 57.870,18.183 C57.877,18.208 57.977,18.454 59.036,19.062 C59.197,19.155 59.340,19.219 59.461,19.255 C59.639,19.309 59.769,19.348 60.116,18.816 C60.344,18.464 60.557,18.095 60.780,17.702 C61.076,17.188 61.378,16.656 61.738,16.145 C62.143,15.571 62.961,15.147 63.685,15.135 C67.759,15.060 70.991,14.453 73.533,11.722 L75.130,10.006 L75.496,12.334 C76.097,16.143 78.802,18.400 81.756,20.566 C82.360,21.007 82.637,21.841 82.643,22.473 C82.649,23.024 82.619,23.562 82.589,24.084 C82.560,24.636 82.529,25.160 82.544,25.674 C82.556,26.172 82.655,26.202 82.889,26.272 C83.121,26.342 83.454,26.380 83.878,26.380 C84.931,26.385 84.944,26.156 84.969,25.654 C85.017,24.820 85.011,23.986 84.957,23.178 C84.873,21.938 85.333,21.090 86.403,20.521 L85.404,17.154 C85.297,16.791 85.226,16.446 85.161,16.142 C85.102,15.852 85.011,15.418 84.935,15.301 C84.933,15.303 84.861,15.253 84.683,15.200 C84.333,15.095 83.866,15.065 83.542,15.052 C83.131,15.033 83.024,15.094 83.023,15.095 C82.995,15.122 82.822,15.343 82.684,16.553 L82.395,19.059 L76.318,12.453 L78.866,12.379 C79.598,12.358 80.098,12.181 80.353,11.856 C80.660,11.462 80.719,10.699 80.518,9.709 L80.219,8.230 L81.703,8.307 C81.933,8.318 82.176,8.361 82.426,8.436 C84.741,9.132 88.113,12.708 88.074,14.999 C88.064,15.530 87.923,16.007 87.787,16.469 C87.730,16.661 87.670,16.866 87.615,17.087 L86.834,20.307 C88.439,19.474 89.562,18.008 89.934,16.245 ZM66.856,34.618 C64.859,37.979 64.142,41.023 64.600,44.192 C64.632,44.412 64.671,44.635 64.716,44.861 C66.839,42.642 68.025,40.040 68.329,36.962 C68.383,36.410 68.407,35.855 68.430,35.269 C68.444,34.896 68.460,34.520 68.483,34.144 C68.778,29.502 72.424,25.900 76.969,25.761 C77.932,25.734 78.895,25.769 79.745,25.802 C79.924,25.809 80.087,25.813 80.259,25.819 C80.258,25.792 80.252,25.770 80.252,25.743 C80.235,25.136 80.268,24.540 80.302,23.963 C80.328,23.458 80.355,22.979 80.349,22.511 C80.348,22.482 80.337,22.429 80.322,22.388 C77.603,20.395 74.911,18.149 73.717,14.671 C70.712,16.988 67.159,17.400 63.716,17.462 C63.693,17.468 63.618,17.500 63.578,17.529 C63.291,17.940 63.034,18.391 62.762,18.866 C62.534,19.270 62.294,19.688 62.027,20.096 C61.970,20.183 61.911,20.248 61.853,20.326 C65.569,22.163 68.757,24.696 68.468,29.871 C68.367,31.725 67.536,33.476 66.856,34.618 ZM82.320,28.525 C82.411,28.866 82.511,29.174 82.647,29.392 C82.657,29.395 82.665,29.397 82.675,29.400 C83.008,29.500 83.603,29.508 84.035,29.512 L84.098,29.513 C84.506,29.519 84.614,29.473 84.626,29.466 C84.693,29.381 84.767,29.084 84.841,28.624 C84.549,28.680 84.225,28.712 83.859,28.711 C83.249,28.708 82.749,28.644 82.320,28.525 ZM84.521,12.795 C84.035,12.237 83.462,11.695 82.904,11.287 C82.849,11.872 82.696,12.395 82.447,12.849 C82.782,12.751 83.177,12.707 83.640,12.725 C83.902,12.733 84.205,12.752 84.521,12.795 ZM101.858,49.775 C97.919,46.496 95.989,42.179 96.120,36.941 C96.158,35.517 96.195,34.055 95.785,32.901 C95.001,30.699 93.710,29.393 91.722,28.795 C90.516,28.433 89.060,28.321 87.190,28.452 C86.956,30.371 86.472,31.872 84.060,31.842 L83.997,31.843 C83.398,31.835 82.652,31.824 82.016,31.632 C81.517,31.482 81.136,31.234 80.876,30.889 C80.321,30.142 80.111,29.238 79.910,28.364 C79.894,28.288 79.876,28.212 79.857,28.137 C79.789,28.132 79.719,28.133 79.651,28.128 C78.796,28.095 77.913,28.063 77.028,28.090 C73.680,28.190 70.988,30.855 70.773,34.283 C70.749,34.640 70.735,34.998 70.719,35.353 C70.698,35.950 70.674,36.566 70.611,37.185 C70.182,41.542 68.264,45.071 64.748,47.973 L63.295,49.171 L62.904,47.318 C62.836,46.998 62.769,46.694 62.702,46.402 C62.558,45.766 62.420,45.165 62.330,44.540 C61.798,40.855 62.636,37.221 64.895,33.421 C65.663,32.126 66.120,30.824 66.180,29.750 C66.361,26.470 64.972,24.492 60.938,22.468 C60.749,22.762 60.515,23.063 60.198,23.306 C59.212,24.060 58.321,24.392 57.548,24.292 C55.965,24.087 54.780,23.249 54.314,22.016 C53.918,20.979 54.063,19.767 54.716,18.584 C54.315,18.361 53.937,18.117 53.571,17.878 C53.355,17.739 53.135,17.598 52.912,17.462 C52.245,17.056 51.561,16.746 50.885,16.543 C47.847,15.630 45.114,16.839 43.384,19.862 C40.471,24.950 36.242,27.747 30.071,28.660 C16.851,30.620 8.101,37.966 4.068,50.492 C0.079,62.878 2.838,74.140 12.270,83.962 C12.847,84.565 13.284,85.418 13.440,86.249 C13.854,88.422 15.448,90.279 17.407,90.868 C17.634,90.936 17.866,90.986 18.095,91.018 C19.800,91.251 21.442,90.803 22.719,89.753 C23.956,88.736 24.706,87.266 24.832,85.611 C25.039,82.880 23.385,80.506 20.716,79.703 C20.184,79.544 19.626,79.451 19.048,79.424 C18.286,79.396 17.418,79.034 16.878,78.524 C9.301,71.312 7.149,59.554 11.642,49.925 C15.991,40.611 25.316,34.938 35.399,35.472 C37.320,35.576 39.227,35.907 41.065,36.460 C48.573,38.717 54.633,44.601 57.277,52.197 C57.734,53.510 57.571,54.546 56.726,55.660 C53.218,60.295 51.169,65.353 50.640,70.693 C49.268,84.553 54.448,95.321 66.039,102.699 C67.206,103.440 68.485,104.010 69.839,104.610 C69.846,104.614 69.855,104.616 69.860,104.620 C69.760,101.960 70.591,99.754 72.370,97.945 C72.259,97.896 72.149,97.847 72.035,97.798 C65.934,95.122 61.271,90.131 58.907,83.740 C56.540,77.337 56.809,70.434 59.667,64.293 C64.921,53.005 77.281,47.383 89.059,50.924 C90.805,51.448 92.508,52.177 94.118,53.084 C103.001,58.098 107.924,68.280 106.372,78.425 C104.762,88.935 96.919,97.349 86.854,99.361 C85.974,99.537 84.836,99.334 84.017,98.860 C83.592,98.612 83.143,98.417 82.681,98.278 C80.610,97.656 78.473,98.202 76.965,99.741 C74.721,102.035 74.695,105.734 76.902,107.989 C77.575,108.677 78.408,109.181 79.310,109.453 C81.325,110.059 83.496,109.473 84.975,107.928 C85.912,106.951 86.907,106.626 87.755,106.435 C99.259,103.855 107.237,97.057 111.464,86.231 C116.557,73.186 112.789,58.877 101.858,49.775 ZM85.771,40.550 C85.407,40.760 85.354,40.848 85.354,41.704 L85.357,41.867 C85.362,42.246 85.372,42.764 85.134,43.264 C84.872,43.815 84.119,44.633 83.214,44.506 C83.133,44.496 83.048,44.477 82.964,44.451 C82.494,44.310 82.061,43.970 81.641,43.411 C81.275,42.927 81.333,42.356 81.367,42.051 C81.369,42.013 81.373,41.975 81.375,41.940 C81.437,40.899 81.345,40.617 80.816,40.254 C79.268,39.193 78.943,36.929 80.077,35.099 C81.021,33.575 82.826,32.903 84.566,33.426 C86.039,33.869 87.023,34.940 87.335,36.442 C87.702,38.209 87.101,39.783 85.771,40.550 ZM85.090,36.931 C84.949,36.255 84.584,35.862 83.905,35.657 C83.164,35.434 82.404,35.707 82.016,36.333 C81.612,36.986 81.549,37.942 82.103,38.322 C82.769,38.776 83.163,39.299 83.390,39.822 C83.616,39.354 83.999,38.899 84.645,38.526 C85.270,38.167 85.164,37.288 85.090,36.931 ZM57.407,29.274 C56.886,31.117 55.430,32.335 53.781,32.299 C53.391,32.289 53.285,32.334 53.048,32.817 C52.837,33.251 52.549,33.838 52.010,34.222 C51.562,34.541 50.771,34.791 50.098,34.588 C49.968,34.549 49.847,34.493 49.737,34.425 C49.091,34.020 48.913,33.152 48.883,32.979 C48.777,32.365 48.962,31.965 49.136,31.739 C49.813,30.868 49.939,29.980 49.601,28.464 C49.257,26.927 50.154,25.424 51.884,24.627 C53.376,23.946 54.941,24.180 56.174,25.266 C57.295,26.256 57.742,27.648 57.429,29.188 L57.407,29.274 ZM54.665,27.027 C54.441,26.829 54.209,26.693 53.978,26.624 C53.620,26.516 53.241,26.557 52.819,26.750 C52.401,26.942 51.718,27.411 51.838,27.939 C52.004,28.689 52.138,29.558 52.041,30.472 C52.475,30.162 53.053,29.952 53.840,29.971 C54.407,29.982 54.959,29.454 55.191,28.681 C55.361,27.766 54.973,27.300 54.665,27.027 ZM20.145,82.364 C21.733,82.916 22.537,84.570 22.012,86.207 C21.488,87.849 19.871,88.717 18.249,88.229 C18.248,88.229 18.249,88.229 18.248,88.229 C18.201,88.215 18.152,88.200 18.105,88.183 C16.509,87.624 15.706,85.967 16.233,84.330 C16.775,82.647 18.468,81.784 20.145,82.364 ZM18.862,85.982 L18.907,85.996 C19.330,86.123 19.694,85.926 19.832,85.499 C19.970,85.067 19.801,84.708 19.392,84.564 L19.346,84.550 C18.912,84.420 18.554,84.608 18.413,85.043 C18.277,85.468 18.453,85.838 18.862,85.982 ZM82.406,106.568 C81.697,106.963 80.869,107.043 80.068,106.802 L80.013,106.785 C78.431,106.278 77.583,104.654 78.033,103.009 C78.255,102.201 78.769,101.535 79.476,101.134 C80.184,100.736 81.014,100.649 81.810,100.888 L81.887,100.912 C83.464,101.429 84.333,103.094 83.865,104.707 C83.630,105.517 83.111,106.178 82.406,106.568 ZM81.173,103.128 L81.151,103.121 C80.892,103.044 80.698,103.106 80.582,103.173 C80.466,103.235 80.313,103.370 80.240,103.627 C80.120,104.074 80.300,104.432 80.713,104.565 C80.943,104.634 81.145,104.618 81.315,104.525 C81.483,104.431 81.604,104.271 81.665,104.058 C81.783,103.651 81.576,103.258 81.173,103.128 ZM70.643,9.756 L73.924,11.110 L64.252,13.511 L64.826,11.568 C64.913,11.273 65.024,10.996 65.122,10.751 C65.217,10.511 65.359,10.150 65.359,10.023 C65.343,9.972 65.133,9.610 64.458,9.140 C64.167,8.937 63.953,8.812 63.819,8.772 C63.808,8.768 63.797,8.766 63.788,8.766 C63.754,8.779 63.564,8.876 63.006,9.443 L60.587,11.895 L61.061,8.462 C61.334,6.492 62.488,5.747 63.410,5.467 C64.919,5.007 66.497,4.629 68.096,4.336 C68.701,4.226 69.255,4.381 69.742,4.517 C69.914,4.565 70.092,4.616 70.275,4.651 L72.416,5.066 L70.860,6.622 C70.079,7.402 69.650,8.299 69.768,8.906 C69.793,9.036 69.870,9.437 70.643,9.756 ZM67.819,10.230 C67.754,10.104 67.696,9.971 67.648,9.835 C67.659,9.983 67.654,10.132 67.640,10.276 L67.819,10.230 ZM65.768,7.222 C66.641,7.831 67.215,8.483 67.485,9.158 C67.385,8.386 67.556,7.547 67.962,6.729 C67.223,6.872 66.490,7.037 65.768,7.222 Z"/>
</svg>