<svg 
 xmlns="http://www.w3.org/2000/svg"
 xmlns:xlink="http://www.w3.org/1999/xlink"
 width="25px" height="25px">
<path fill-rule="evenodd"  fill="rgb(255, 255, 255)"
 d="M23.737,22.439 L18.046,16.771 L18.016,16.771 C21.626,12.458 21.060,6.030 16.751,2.415 C12.442,-1.199 6.023,-0.633 2.413,3.682 C-1.197,7.995 -0.631,14.423 3.678,18.038 C7.459,21.211 12.969,21.211 16.751,18.038 L16.781,18.038 L22.442,23.736 C22.800,24.094 23.380,24.094 23.737,23.736 C24.095,23.378 24.095,22.797 23.737,22.439 ZM10.217,18.580 C5.593,18.580 1.845,14.828 1.845,10.199 C1.845,5.569 5.593,1.817 10.217,1.817 C14.840,1.817 18.588,5.569 18.588,10.199 C18.588,14.828 14.840,18.580 10.217,18.580 Z"/>
</svg>