<svg 
 xmlns="http://www.w3.org/2000/svg"
 xmlns:xlink="http://www.w3.org/1999/xlink"
 width="20px" height="20px">
<path fill-rule="evenodd"  fill="rgb(217, 27, 91)"
 d="M15.854,16.436 C14.471,17.686 12.819,18.419 10.958,18.693 C8.991,18.984 7.121,18.680 5.341,17.819 C5.201,17.752 5.089,17.754 4.950,17.817 C3.402,18.515 1.851,19.208 0.301,19.903 C0.229,19.935 0.156,19.963 0.044,20.010 C0.120,19.704 0.185,19.431 0.255,19.158 C0.641,17.634 1.027,16.110 1.419,14.589 C1.456,14.444 1.436,14.328 1.359,14.201 C0.683,13.082 0.243,11.876 0.097,10.585 C-0.211,7.870 0.499,5.438 2.301,3.345 C3.761,1.651 5.621,0.611 7.837,0.200 C8.283,0.117 8.744,0.108 9.198,0.062 C9.288,0.053 9.377,0.030 9.467,0.014 C9.533,0.014 9.600,0.014 9.666,0.014 C9.742,0.030 9.818,0.059 9.894,0.061 C11.676,0.109 13.315,0.621 14.788,1.597 C17.055,3.100 18.489,5.175 18.920,7.840 C19.468,11.229 18.424,14.116 15.854,16.436 ZM17.128,8.305 C16.947,6.849 16.335,5.558 15.343,4.467 C13.491,2.432 11.164,1.597 8.414,1.957 C6.713,2.181 5.254,2.924 4.067,4.137 C2.315,5.927 1.622,8.076 1.962,10.539 C2.150,11.903 2.712,13.113 3.590,14.180 C3.684,14.294 3.711,14.385 3.652,14.529 C3.352,15.254 3.065,15.983 2.775,16.712 C2.747,16.781 2.731,16.854 2.709,16.926 C2.721,16.936 2.733,16.947 2.745,16.957 C2.822,16.913 2.900,16.872 2.975,16.825 C3.613,16.425 4.251,16.027 4.886,15.624 C4.985,15.562 5.061,15.542 5.171,15.618 C6.766,16.712 8.533,17.134 10.462,16.922 C11.697,16.786 12.845,16.389 13.851,15.675 C16.410,13.859 17.512,11.391 17.128,8.305 ZM12.562,13.883 C12.420,13.909 12.272,13.907 12.127,13.918 C11.497,13.912 10.907,13.741 10.345,13.485 C8.189,12.501 6.545,10.987 5.492,8.878 C5.248,8.390 5.100,7.871 5.098,7.317 C5.097,6.994 5.148,6.684 5.319,6.417 C5.540,6.071 5.785,5.737 6.057,5.430 C6.154,5.320 6.354,5.278 6.515,5.249 C6.682,5.219 6.859,5.239 7.031,5.244 C7.241,5.252 7.383,5.337 7.462,5.550 C7.683,6.150 7.917,6.746 8.159,7.338 C8.237,7.527 8.210,7.681 8.087,7.828 C7.919,8.030 7.752,8.233 7.575,8.427 C7.405,8.613 7.399,8.802 7.509,9.019 C7.877,9.746 8.410,10.341 9.055,10.834 C9.446,11.130 9.881,11.373 10.303,11.627 C10.413,11.694 10.551,11.714 10.677,11.754 C10.925,11.834 11.116,11.748 11.270,11.554 C11.458,11.318 11.647,11.082 11.837,10.848 C12.042,10.595 12.130,10.575 12.427,10.709 C12.969,10.954 13.510,11.200 14.053,11.443 C14.197,11.507 14.290,11.603 14.311,11.762 C14.333,11.930 14.394,12.100 14.376,12.263 C14.356,12.456 14.318,12.680 14.203,12.825 C13.782,13.355 13.256,13.754 12.562,13.883 Z"/>
</svg>